<svg xmlns="http://www.w3.org/2000/svg" viewBox="0 0 15.89 23.76"><defs><style>.cls-1{fill:#3c3c3c;}</style></defs><title>Recurso 5</title><g id="Capa_2" data-name="Capa 2"><g id="Capa_1-2" data-name="Capa 1"><path class="cls-1" d="M8.27,23.76H7.63a2.14,2.14,0,0,1-2.14-2.14V14.25H1.87a1.86,1.86,0,0,1-1.61-2.8L6.32.93A1.88,1.88,0,0,1,8,0H8A1.83,1.83,0,0,1,9.56.93l6.08,10.52a1.84,1.84,0,0,1,0,1.87,1.87,1.87,0,0,1-1.62.93H10.4v7.37A2.14,2.14,0,0,1,8.27,23.76ZM8,1a.87.87,0,0,0-.76.43L1.12,12a.87.87,0,0,0,.75,1.3H6a.5.5,0,0,1,.47.66v7.71a1.14,1.14,0,0,0,1.14,1.14h.64A1.14,1.14,0,0,0,9.4,21.62V14a.54.54,0,0,1,.48-.7H14a.83.83,0,0,0,.75-.43.85.85,0,0,0,0-.87L8.69,1.43A.84.84,0,0,0,8,1Z"/></g></g></svg>