<svg xmlns="http://www.w3.org/2000/svg" viewBox="0 0 15.89 23.76"><defs><style>.cls-1{fill:#3c3c3c;}</style></defs><title>Recurso 3</title><g id="Capa_2" data-name="Capa 2"><g id="Capa_1-2" data-name="Capa 1"><path class="cls-1" d="M8,23.76a1.84,1.84,0,0,1-1.62-.93L.26,12.31a1.82,1.82,0,0,1,0-1.86,1.84,1.84,0,0,1,1.62-.94H5.49V2.14A2.14,2.14,0,0,1,7.63,0h.64A2.14,2.14,0,0,1,10.4,2.14V9.51H14a1.87,1.87,0,0,1,1.62.93,1.84,1.84,0,0,1,0,1.87L9.56,22.83A1.83,1.83,0,0,1,8,23.76ZM1.87,10.51a.87.87,0,0,0-.75,1.3L7.19,22.33a.87.87,0,0,0,.76.43H8a.84.84,0,0,0,.74-.43l6.09-10.52a.87.87,0,0,0,0-.87.85.85,0,0,0-.75-.43H9.88a.52.52,0,0,1-.41-.21.52.52,0,0,1-.07-.45V2.14A1.14,1.14,0,0,0,8.27,1H7.63A1.14,1.14,0,0,0,6.49,2.14V9.81a.53.53,0,0,1-.08.47.51.51,0,0,1-.4.23Z"/></g></g></svg>