<svg xmlns="http://www.w3.org/2000/svg" viewBox="0 0 20.96 23.54"><defs><style>.cls-1{fill:#848484;}</style></defs><title>4Recurso 1</title><g id="Capa_2" data-name="Capa 2"><g id="Capa_1-2" data-name="Capa 1"><path class="cls-1" d="M13.83,4.61A5.55,5.55,0,1,1,9.3.08,5.56,5.56,0,0,1,13.83,4.61Z"/><path class="cls-1" d="M12,11a5.33,5.33,0,0,0-1.34,3.52v.1h-.11a.63.63,0,0,0-.63.63v8.33h-9A.92.92,0,0,1,0,22.62v-6.2a4.47,4.47,0,0,1,.05-.71c.35-2.19,2.33-4.05,5.16-4.86a.88.88,0,0,1,.84.15,3.66,3.66,0,0,0,4.64,0,.86.86,0,0,1,.84-.17Z"/><polygon class="cls-1" points="16.53 14.96 16.53 14.96 16.52 14.96 16.53 14.96"/><path class="cls-1" d="M16.52,15h0Z"/><path class="cls-1" d="M20.44,15h-.11v-.11a4.44,4.44,0,0,0-3.64-4.37h0a4.15,4.15,0,0,0-.79-.07,4.42,4.42,0,0,0-2.81,1l-.37.34a4.4,4.4,0,0,0-1.26,3.1V15h-.1a.52.52,0,0,0-.53.52V23a.52.52,0,0,0,.53.52h9.1A.52.52,0,0,0,21,23v-7.5A.51.51,0,0,0,20.44,15Zm-6.37-3a3.34,3.34,0,0,1,1.81-.53,3.4,3.4,0,0,1,3.41,3.4.45.45,0,0,1,0,.11h-6.8v-.11a1.27,1.27,0,0,1,0-.2A3.36,3.36,0,0,1,14.07,12Zm5.85,10.48H11.86V16h8.06Z"/><line class="cls-1" x1="15.86" y1="19.99" x2="15.86" y2="18.32"/><path class="cls-1" d="M16.62,18.32a.79.79,0,0,1-.23.56V20a.52.52,0,0,1-.53.52.51.51,0,0,1-.52-.52v-1.1a.76.76,0,0,1,.52-1.32A.76.76,0,0,1,16.62,18.32Z"/></g></g></svg>