<svg xmlns="http://www.w3.org/2000/svg" viewBox="0 0 16.16 21.44"><defs><style>.cls-1{fill:#b7b7b7;}</style></defs><title>Recurso 4</title><g id="Capa_2" data-name="Capa 2"><g id="Capa_1-2" data-name="Capa 1"><path class="cls-1" d="M11.18,15.28,14.6,21A.84.84,0,0,0,16,20.18l-3.43-5.75c-.22.17-.45.32-.69.47A7.39,7.39,0,0,1,11.18,15.28Z"/><path class="cls-1" d="M14,3.67a7.52,7.52,0,1,0-3.35,10.69c.25-.12.5-.24.75-.39a6.45,6.45,0,0,0,.69-.47A7.52,7.52,0,0,0,14,3.67Zm-3.46,8.87a5.85,5.85,0,1,1,2-8A5.86,5.86,0,0,1,10.51,12.54Z"/></g></g></svg>