<svg xmlns="http://www.w3.org/2000/svg" viewBox="0 0 27.15 22.28"><defs><style>.cls-1{fill:#3c3c3c;}</style></defs><title>Recurso 2</title><g id="Capa_2" data-name="Capa 2"><g id="Capa_1-2" data-name="Capa 1"><path class="cls-1" d="M13.83,22.28a.84.84,0,0,1-.7-.36l-2.6-3.6C4.4,17.37,0,13.61,0,9.28,0,4.16,6.09,0,13.58,0S27.15,4.16,27.15,9.28c0,4.38-4.26,8-10.42,9l-2.16,3.55a.88.88,0,0,1-.71.42ZM13.58,1.81C7.05,1.81,1.75,5.16,1.75,9.28c0,3.5,3.94,6.57,9.37,7.31a.89.89,0,0,1,.59.35l2.06,2.84L15.47,17a.87.87,0,0,1,.62-.41c5.4-.75,9.31-3.82,9.31-7.3C25.4,5.16,20.1,1.81,13.58,1.81Z"/><path class="cls-1" d="M17.49,8H9.66a.91.91,0,0,1,0-1.81h7.83a.91.91,0,0,1,0,1.81Z"/><path class="cls-1" d="M19.69,11.45H7.46a.91.91,0,0,1,0-1.81H19.69a.91.91,0,0,1,0,1.81Z"/></g></g></svg>