<svg xmlns="http://www.w3.org/2000/svg" viewBox="0 0 28.64 23.13"><defs><style>.cls-1{fill:#3c3c3c;}</style></defs><title>Recurso 8</title><g id="Capa_2" data-name="Capa 2"><g id="Capa_1-2" data-name="Capa 1"><path class="cls-1" d="M24.44,4.8a6.65,6.65,0,0,1,1.78,4.38c0,4-3.92,7.41-9.58,8.31l-2,3.26a.88.88,0,0,1-.23.24l1.32,1.81a.76.76,0,0,0,.63.33h0a.8.8,0,0,0,.66-.38l2-3.27c5.66-.9,9.59-4.29,9.59-8.31C28.64,8.64,27,6.36,24.44,4.8Z"/><path class="cls-1" d="M13.41,20.12l2-3.27C21.06,16,25,12.57,25,8.54A6.63,6.63,0,0,0,23.2,4.16C21,1.67,17,0,12.5,0,5.61,0,0,3.83,0,8.54c0,2.51,1.61,4.82,4.21,6.4a15.27,15.27,0,0,0,5.48,1.93L11,18.64l1.1,1.53a.81.81,0,0,0,.65.33h0a.72.72,0,0,0,.42-.15A.84.84,0,0,0,13.41,20.12Zm-3.17-4.86c-3.58-.48-6.44-2.06-7.79-4.1a4.73,4.73,0,0,1-.84-2.62c0-3.79,4.88-6.88,10.89-6.88A16.75,16.75,0,0,1,16,2c4.3.91,7.42,3.48,7.42,6.51,0,3.21-3.61,6-8.57,6.72a.8.8,0,0,0-.58.38l-1.56,2.57-1.9-2.62A.8.8,0,0,0,10.24,15.26Z"/><path class="cls-1" d="M8.89,7.38H16.1a.83.83,0,0,0,0-1.66H8.89a.83.83,0,0,0,0,1.66Z"/><path class="cls-1" d="M18.92,9.71a.82.82,0,0,0-.8-.83H6.87a.83.83,0,0,0,0,1.66H18.12A.82.82,0,0,0,18.92,9.71Z"/></g></g></svg>