<svg xmlns="http://www.w3.org/2000/svg" viewBox="0 0 20.68 21.81"><defs><style>.cls-1{fill:#3c3c3c;}</style></defs><title>Recurso 7</title><g id="Capa_2" data-name="Capa 2"><g id="Capa_1-2" data-name="Capa 1"><path class="cls-1" d="M16.41,13.29a4.25,4.25,0,0,0-3.31,1.59L8.32,12.31a4.31,4.31,0,0,0,.2-1.3A4.11,4.11,0,0,0,8.1,9.17l4.46-2.33a4.26,4.26,0,0,0,7.65-2.57,4.26,4.26,0,1,0-8.36,1.18L7.15,7.91A4.17,4.17,0,0,0,4.26,6.76a4.26,4.26,0,1,0,3.31,6.93l4.78,2.57a4.57,4.57,0,0,0-.19,1.29,4.26,4.26,0,1,0,4.25-4.26ZM15.94,1.57a2.7,2.7,0,1,1,0,5.39A2.71,2.71,0,0,1,13.29,4.7a3.13,3.13,0,0,1,0-.43A2.7,2.7,0,0,1,15.94,1.57Zm-9,10a2.74,2.74,0,0,1-.74,1.38,2.69,2.69,0,1,1-1.9-4.61,2.66,2.66,0,0,1,1.37.38A2.7,2.7,0,0,1,6.72,9.9,2.73,2.73,0,0,1,7,11,2.48,2.48,0,0,1,6.9,11.55Zm9.51,8.69a2.69,2.69,0,0,1-2.69-2.69,2.33,2.33,0,0,1,.06-.53,2.63,2.63,0,0,1,.74-1.38,2.69,2.69,0,1,1,1.89,4.6Z"/></g></g></svg>