<svg xmlns="http://www.w3.org/2000/svg" viewBox="0 0 24.19 19.71"><defs><style>.cls-1{fill:#3c3c3c;}</style></defs><title>Recurso 1</title><g id="Capa_2" data-name="Capa 2"><g id="Capa_1-2" data-name="Capa 1"><path class="cls-1" d="M23.78,5.05a.41.41,0,0,0,.41-.41V1.92a.79.79,0,0,0-.52-.74C19.17-.36,16.53-.39,12.1,1.09,7.66-.39,5-.36.52,1.18A.79.79,0,0,0,0,1.92v17a.77.77,0,0,0,.33.63.75.75,0,0,0,.48.14H23.23v0l.18,0a.8.8,0,0,0,.45-.14.77.77,0,0,0,.33-.63V13.41a.55.55,0,0,0-.56-.55h-.44a.54.54,0,0,0-.55.55v4.46A16,16,0,0,0,17.75,17a16,16,0,0,0-4.88.85V2.48a13.4,13.4,0,0,1,9.77,0V4.64a.41.41,0,0,0,.41.41ZM1.55,2.48a13.4,13.4,0,0,1,9.77,0V17.87A16.08,16.08,0,0,0,6.43,17a16.07,16.07,0,0,0-4.88.85Z"/><path class="cls-1" d="M22.5,9.42l1.15-1a.78.78,0,0,0-.2-1.29L18.34,4.83a.77.77,0,0,0-.83.13.79.79,0,0,0-.23.81l1.66,5.34a.8.8,0,0,0,.54.52.64.64,0,0,0,.2,0,.77.77,0,0,0,.52-.2l1.14-1,1.06,1.19a.78.78,0,0,0,.58.26.8.8,0,0,0,.52-.19.78.78,0,0,0,.06-1.1Zm-2.43.08L19.28,7,21.72,8l-.83.73Z"/><path class="cls-1" d="M9.72,5.83H3.2a.53.53,0,0,1-.54-.53.54.54,0,0,1,.54-.53H9.72a.53.53,0,0,1,.53.53A.53.53,0,0,1,9.72,5.83Z"/><path class="cls-1" d="M9.72,8.43H3.2a.53.53,0,1,1,0-1.06H9.72a.53.53,0,0,1,0,1.06Z"/><path class="cls-1" d="M9.72,10.88H3.2a.54.54,0,1,1,0-1.07H9.72a.54.54,0,0,1,0,1.07Z"/><path class="cls-1" d="M9.72,13.48H3.2a.54.54,0,1,1,0-1.07H9.72a.54.54,0,0,1,0,1.07Z"/></g></g></svg>