<?xml version="1.0" encoding="UTF-8"?>
<svg id="Capa_2" data-name="Capa 2" xmlns="http://www.w3.org/2000/svg" viewBox="0 0 16.16 21.44">
  <defs>
    <style>
      .cls-1 {
        fill: #fff;
      }
    </style>
  </defs>
  <g id="Capa_1-2" data-name="Capa 1">
    <g>
      <path class="cls-1" d="m11.18,15.28l3.43,5.75c.24.4.75.53,1.15.29s.53-.75.29-1.15l-3.43-5.75c-.22.17-.45.33-.69.47s-.49.27-.74.39Z"/>
      <path class="cls-1" d="m13.97,3.67C11.85.11,7.23-1.06,3.67,1.06.11,3.18-1.06,7.81,1.06,11.37c1.98,3.32,6.13,4.56,9.56,2.99.25-.11.5-.24.74-.39s.47-.3.69-.47c3.01-2.28,3.89-6.52,1.91-9.84Zm-3.46,8.87c-2.77,1.65-6.37.74-8.02-2.03-1.65-2.77-.74-6.37,2.03-8.02,2.77-1.65,6.37-.74,8.02,2.03,1.65,2.77.74,6.37-2.03,8.02Z"/>
    </g>
  </g>
</svg>