<svg xmlns="http://www.w3.org/2000/svg" viewBox="0 0 19.08 22.24"><defs><style>.cls-1{fill:#3c3c3c;}</style></defs><title>Recurso 3</title><g id="Capa_2" data-name="Capa 2"><g id="Capa_1-2" data-name="Capa 1"><path class="cls-1" d="M19,15.68,16.85,7.89a11.1,11.1,0,0,1-.32-1.72,7,7,0,0,0-14,.39,2.72,2.72,0,0,1-.1.67L.08,15.68a2.28,2.28,0,0,0,2.2,2.88H5.09a4.52,4.52,0,0,0,8.89,0H16.8A2.27,2.27,0,0,0,19,15.68ZM9.54,20.56a2.84,2.84,0,0,1-2.72-2h5.44A2.86,2.86,0,0,1,9.54,20.56Zm7.74-3.91a.61.61,0,0,1-.48.24H2.28a.6.6,0,0,1-.48-.24.6.6,0,0,1-.1-.52L4,7.67a5.17,5.17,0,0,0,.15-1,5.37,5.37,0,0,1,10.68-.3,14.54,14.54,0,0,0,.37,2l2.15,7.79A.6.6,0,0,1,17.28,16.65Z"/></g></g></svg>