<?xml version="1.0" encoding="UTF-8"?>
<svg id="Capa_2" data-name="Capa 2" xmlns="http://www.w3.org/2000/svg" viewBox="0 0 28.64 23.13">
  <defs>
    <style>
      .cls-1 {
        fill: #3c3c3c;
      }
    </style>
  </defs>
  <g id="Capa_1-2" data-name="Capa 1">
    <g>
      <path class="cls-1" d="m24.44,4.8c1.13,1.28,1.79,2.78,1.79,4.38,0,4.03-3.92,7.41-9.59,8.31l-1.99,3.26c-.06.1-.14.17-.22.23l1.31,1.81c.15.21.38.33.64.33h.03c.27,0,.51-.15.65-.38l1.99-3.27c5.66-.9,9.59-4.29,9.59-8.31,0-2.53-1.63-4.8-4.2-6.37Z"/>
      <path class="cls-1" d="m13.41,20.12l1.99-3.26c5.67-.9,9.59-4.28,9.59-8.31,0-1.6-.66-3.1-1.79-4.38C21.02,1.67,17.04,0,12.5,0,5.61,0,0,3.83,0,8.54c0,2.51,1.61,4.82,4.21,6.39,1.53.93,3.39,1.61,5.47,1.93l1.29,1.78,1.11,1.53c.15.21.39.33.64.33.01,0,.02,0,.03,0,.16,0,.3-.06.42-.15.09-.06.17-.14.22-.23Zm-3.17-4.85c-3.57-.48-6.44-2.07-7.78-4.11-.54-.81-.84-1.7-.84-2.62C1.61,4.75,6.49,1.66,12.5,1.66c1.21,0,2.37.13,3.46.36,4.31.92,7.42,3.49,7.42,6.51,0,3.21-3.6,6.03-8.57,6.72-.24.03-.45.17-.57.38l-1.56,2.57-1.9-2.62c-.13-.18-.32-.3-.54-.33Z"/>
      <path class="cls-1" d="m8.89,7.38h7.2c.44,0,.8-.37.8-.83s-.36-.83-.8-.83h-7.2c-.44,0-.8.37-.8.83s.36.83.8.83Z"/>
      <path class="cls-1" d="m18.92,9.71c0-.46-.36-.83-.8-.83H6.87c-.44,0-.8.37-.8.83s.36.83.8.83h11.25c.44,0,.8-.37.8-.83Z"/>
    </g>
  </g>
</svg>