<?xml version="1.0" encoding="UTF-8"?>
<svg id="Capa_2" data-name="Capa 2" xmlns="http://www.w3.org/2000/svg" viewBox="0 0 24.68 14.85">
  <defs>
    <style>
      .cls-1 {
        fill: #fff;
      }
    </style>
  </defs>
  <g id="Capa_1-2" data-name="Capa 1">
    <g>
      <path class="cls-1" d="m23.8,1.76h-11.46c-.49,0-.88-.39-.88-.88s.39-.88.88-.88h11.46c.49,0,.88.39.88.88s-.39.88-.88.88Z"/>
      <path class="cls-1" d="m12.34,6.38H.88c-.49,0-.88-.39-.88-.88s.39-.88.88-.88h11.46c.49,0,.88.39.88.88s-.39.88-.88.88Z"/>
      <path class="cls-1" d="m23.8,10.23h-11.46c-.49,0-.88-.39-.88-.88s.39-.88.88-.88h11.46c.49,0,.88.39.88.88s-.39.88-.88.88Z"/>
      <path class="cls-1" d="m12.34,14.85H.88c-.49,0-.88-.39-.88-.88s.39-.88.88-.88h11.46c.49,0,.88.39.88.88s-.39.88-.88.88Z"/>
    </g>
  </g>
</svg>