<svg xmlns="http://www.w3.org/2000/svg" viewBox="0 0 25.82 21.86"><defs><style>.cls-1{fill:#3c3c3c;}</style></defs><title>Recurso 6</title><g id="Capa_2" data-name="Capa 2"><g id="Capa_1-2" data-name="Capa 1"><path class="cls-1" d="M5.75,9.66a1.74,1.74,0,0,1,.33-.18,5.78,5.78,0,0,1,.81-.24,3.57,3.57,0,0,1,.86-.12h0a2.58,2.58,0,0,1,.62,0A2,2,0,0,1,9.84,10a3.61,3.61,0,0,1,.35,1.57c0,.21,0,.41.07.61a1.65,1.65,0,0,0,.41,1.1,1.93,1.93,0,0,0,.79.41,5.48,5.48,0,0,0,1.15.13.08.08,0,0,0,.09,0s0-.07,0-.11l-.15-.4c-.52-1.41-.24-3-1-4.32A3.06,3.06,0,0,0,11,8.21a4.57,4.57,0,1,0-6-.41A2.17,2.17,0,0,0,4.56,8a3.37,3.37,0,0,0-.82.89,14.69,14.69,0,0,0-1.56,3.41A56.64,56.64,0,0,0,0,20.7,1,1,0,1,0,2,21.05,56.18,56.18,0,0,1,4.05,13c.21-.61.43-1.22.69-1.8A3.5,3.5,0,0,1,5.75,9.66ZM5.68,3.88A2.57,2.57,0,0,1,7.56,2.05a2.59,2.59,0,1,1,.89,5.1H8.18a2.3,2.3,0,0,1-.37,0A2.6,2.6,0,0,1,5.68,3.88Z"/><path class="cls-1" d="M21.08,11.16a18.57,18.57,0,0,1,.69,1.8,54.9,54.9,0,0,1,2.09,8.09,1,1,0,1,0,1.95-.35,58,58,0,0,0-2.17-8.38,14.69,14.69,0,0,0-1.56-3.41A3.37,3.37,0,0,0,21.26,8a1.86,1.86,0,0,0-.38-.22,4.57,4.57,0,1,0-7.81-3.23,4.52,4.52,0,0,0,1.81,3.64,3.1,3.1,0,0,0-.59.71c-.79,1.31-.51,2.91-1,4.32,0,.13-.1.26-.14.4s0,.08,0,.11a.09.09,0,0,0,.1,0,5.46,5.46,0,0,0,1.14-.13,1.93,1.93,0,0,0,.79-.41,1.65,1.65,0,0,0,.41-1.1c0-.2,0-.4.07-.61A3.61,3.61,0,0,1,16,10a2,2,0,0,1,1.46-.82,2.57,2.57,0,0,1,.62,0h0a3.56,3.56,0,0,1,.85.12,5.78,5.78,0,0,1,.81.24,1.74,1.74,0,0,1,.33.18A3.5,3.5,0,0,1,21.08,11.16ZM18,7.14a2.23,2.23,0,0,1-.37,0h-.27a2.59,2.59,0,1,1,.89-5.1,2.57,2.57,0,0,1,1.88,1.83A2.6,2.6,0,0,1,18,7.14Z"/><path class="cls-1" d="M15,17.2l.17.05a11.87,11.87,0,0,0,2.07-2.06,11.16,11.16,0,0,0,1.21-1.88,5.52,5.52,0,0,0,.67-2.11,1,1,0,0,0-.59-1,.95.95,0,0,0-1.28,1.13,4.82,4.82,0,0,1-.44,1.14,10.2,10.2,0,0,1-1.57,2.23,9.65,9.65,0,0,1-2,1.66l0,0a8.75,8.75,0,0,0,1.5.75Z"/><path class="cls-1" d="M10.67,18c-.12-.08-.24-.18-.35-.27a6.75,6.75,0,0,1-1.9.36A4.13,4.13,0,0,1,7,17.91a.9.9,0,0,0-1.11.64.94.94,0,0,0,.63,1.14,7.19,7.19,0,0,0,4.09-.15c.24-.07.47-.15.71-.24l.37-.16c.17-.07.34-.16.51-.24l-.62-.33C11.29,18.39,11,18.19,10.67,18Z"/><path class="cls-1" d="M19.69,18.37a1,1,0,0,0-1.22-.68,4.69,4.69,0,0,1-1.52.18,7.28,7.28,0,0,1-2-.35l-.18-.05-.31-.11a10,10,0,0,1-1.61-.78l-.1,0a10.83,10.83,0,0,1-2.15-1.72,10.66,10.66,0,0,1-1.69-2.3,4.53,4.53,0,0,1-.47-1.19,1,1,0,0,0-.21-.9,1,1,0,0,0-1.79.83,5.7,5.7,0,0,0,.73,2.19,12.16,12.16,0,0,0,1.3,1.94,13.07,13.07,0,0,0,2.29,2.17l.39.29a10.91,10.91,0,0,0,1,.63l.68.35.5.23.41.16a7.75,7.75,0,0,0,.77.26A8.13,8.13,0,0,0,19,19.6,1,1,0,0,0,19.69,18.37Z"/></g></g></svg>