<svg xmlns="http://www.w3.org/2000/svg" viewBox="0 0 70 70"><defs><style>.cls-1{fill:#b7b7b7;}.cls-2{fill:#fcfcfc;}</style></defs><title>Recurso 5</title><g id="Capa_2" data-name="Capa 2"><g id="Capa_1-2" data-name="Capa 1"><path class="cls-1" d="M43.63,29.11a8.72,8.72,0,1,1-8.72-8.71A8.73,8.73,0,0,1,43.63,29.11Z"/><path class="cls-1" d="M35,0A35,35,0,0,0,15.22,63.87V54.68A10.53,10.53,0,0,1,15.35,53c.82-5.17,5.48-9.56,12.16-11.48a2.12,2.12,0,0,1,1.95.4,8.67,8.67,0,0,0,5.46,1.92,8.55,8.55,0,0,0,5.47-1.94,2.15,2.15,0,0,1,2-.42C49.1,43.46,53.78,47.87,54.59,53a1.94,1.94,0,0,1,0,.34V64A35,35,0,0,0,35,0Zm-.09,42.18A13.07,13.07,0,1,1,48,29.11,13.07,13.07,0,0,1,34.91,42.18Z"/><path class="cls-2" d="M34.91,16.05A13.07,13.07,0,1,0,48,29.11,13.07,13.07,0,0,0,34.91,16.05Zm0,21.78a8.72,8.72,0,1,1,8.72-8.72A8.72,8.72,0,0,1,34.91,37.83Z"/><path class="cls-2" d="M54.61,53.37V64A32.86,32.86,0,0,1,51,66.11c-.24.14-.49.26-.75.39v-13c-.57-3.12-3.69-6-8.1-7.54a12.7,12.7,0,0,1-7.25,2.21,13,13,0,0,1-7.22-2.16c-4.43,1.53-7.56,4.46-8.06,7.65a6.9,6.9,0,0,0-.08,1V66.41c-.48-.22-.95-.47-1.41-.73s-1-.57-1.48-.87-1-.6-1.45-.94V54.68A10.53,10.53,0,0,1,15.35,53c.82-5.17,5.48-9.56,12.16-11.48a2.12,2.12,0,0,1,1.95.4,8.67,8.67,0,0,0,5.46,1.92,8.55,8.55,0,0,0,5.47-1.94,2.15,2.15,0,0,1,2-.42C49.1,43.46,53.78,47.87,54.59,53A1.94,1.94,0,0,1,54.61,53.37Z"/><path class="cls-1" d="M50.27,53.55v13c-.32.16-.66.32-1,.47a35,35,0,0,1-29.7-.56V54.68a6.9,6.9,0,0,1,.08-1c.5-3.19,3.63-6.12,8.06-7.65a13,13,0,0,0,7.22,2.16A12.7,12.7,0,0,0,42.17,46C46.58,47.55,49.7,50.43,50.27,53.55Z"/></g></g></svg>