<svg xmlns="http://www.w3.org/2000/svg" viewBox="0 0 437.09 437.09"><defs><style>.cls-1,.cls-5,.cls-6,.cls-7,.cls-8{fill:#fff;}.cls-2,.cls-4{fill:#3c3c3c;}.cls-3{fill:none;}.cls-3,.cls-4,.cls-5,.cls-6{stroke:#3c3c3c;}.cls-3,.cls-4,.cls-5,.cls-6,.cls-8{stroke-miterlimit:10;}.cls-3,.cls-4,.cls-5{stroke-width:5px;}.cls-6{stroke-width:3px;}.cls-7,.cls-8{stroke:#fff;}.cls-7{stroke-linecap:round;stroke-linejoin:round;}</style></defs><title>Recurso 1</title><g id="Capa_2" data-name="Capa 2"><g id="Capa_1-2" data-name="Capa 1"><path class="cls-1" d="M304.94,367.64v46.22a30.14,30.14,0,0,1-.55,5.72,219.56,219.56,0,0,1-128,13.43,214,214,0,0,1-27.52-7.28,216.72,216.72,0,0,1-32.26-13.85V366.46a29.68,29.68,0,0,1,29.63-28.52H275.24A29.7,29.7,0,0,1,304.94,367.64Z"/><path class="cls-1" d="M111.56,365.39v.88c0,.44,0,.88,0,1.33v41.53q-5.08-2.86-10-6-2.16-1.36-4.29-2.79-7.38-4.94-14.33-10.44V365.36a12,12,0,0,1,11.93-11.94h4.76A12,12,0,0,1,111.56,365.39Z"/><path class="cls-2" d="M406.31,209.34l0-.11c0,.07,0,.15,0,.22h0Zm0,0,0-.11c0,.07,0,.15,0,.22h0Zm0,0,0-.11c0,.07,0,.15,0,.22h0ZM349.82,221l0,.11h0A1,1,0,0,1,349.82,221Zm36.77,53.17H374.71a8.41,8.41,0,0,1-8.41-8.41V253.47a8.36,8.36,0,0,0-1.72,5.1V271.4a8.38,8.38,0,0,0,2.78,6.25,5.9,5.9,0,0,1,3.24-1h20.8a8.31,8.31,0,0,0,1.88-5.29v-.53A8.37,8.37,0,0,1,386.59,274.19Zm7.88,18.71a5.89,5.89,0,0,1-2.56.57H370.6a6,6,0,0,1-5.48-3.56,5.79,5.79,0,0,1-.54-2.46v-4.73a5.27,5.27,0,0,1,.16-1.33s0,0,0-.06h0a6,6,0,0,0-3.08,5.26v4.73a5.87,5.87,0,0,0,.35,2,6,6,0,0,0,5.67,4h2.14a13,13,0,0,1,14.82-.52l.81.52H389a6,6,0,0,0,5.67-4,4.71,4.71,0,0,0,.19-.64Zm11.84-83.56,0-.11c0,.07,0,.15,0,.22h0Zm0,4.74c0,.07,0,.15,0,.22h0Zm0-4.74,0-.11c0,.07,0,.15,0,.22h0Zm0,0,0-.11c0,.07,0,.15,0,.22h0Zm0,0,0-.11c0,.07,0,.15,0,.22h0Z"/><path class="cls-2" d="M394.65,293.35a6,6,0,0,1-5.67,4H376.42a13,13,0,0,1,7,2.07l8.87,5.69a6,6,0,0,0,2.52-3.63,6.21,6.21,0,0,0,.16-1.38v-4.73A5.87,5.87,0,0,0,394.65,293.35Zm-3.25-16.66a8.35,8.35,0,0,1-6.53,3.12H373a8.41,8.41,0,0,1-8.41-8.41v8.38a8.09,8.09,0,0,0,.15,1.56h0a5.88,5.88,0,0,1,2.92-.76H389a5.9,5.9,0,0,1,4,1.52,8.37,8.37,0,0,0,.32-2.31V271.4A8.31,8.31,0,0,1,391.4,276.69Zm-23.73,20.66a6,6,0,0,1-5.67-4,5.87,5.87,0,0,0-.35,2v4.73a6,6,0,0,0,2.67,5l1.12-1.75a13,13,0,0,1,11-6Z"/><path class="cls-2" d="M343.76,354.91a5.85,5.85,0,0,1-.4-.47c-.12-.14-.24-.28-.35-.43a1.43,1.43,0,0,1-.14-.2c-.14-.19-.28-.39-.4-.59a7.6,7.6,0,0,1-.43-.72c-.17-.3-.32-.6-.46-.91v5.67a2.23,2.23,0,0,1,.29-1.11,1.78,1.78,0,0,1,.25-.36,2.23,2.23,0,0,1,.49-.43,2.69,2.69,0,0,1,.38-.19,2.26,2.26,0,0,1,.85-.17ZM218.54,0C97.84,0,0,97.84,0,218.54A218,218,0,0,0,77.91,385.82c0-8,0-20.46,0-20.46a17,17,0,0,1,16.93-16.94h4.79a16.9,16.9,0,0,1,13.94,7.35s0,0,0,0a34.73,34.73,0,0,1,32.58-22.82h2a11.84,11.84,0,0,1,9.66-18.71h32s0,0,0,0a27.53,27.53,0,0,1-3.77-9.2l0,0H152.46c-31.19,0-57.87-24.32-60.75-55.36v-.21c-.18-2.26-.25-4.61-.25-7a102,102,0,0,1,11.62-47.16c.21-.43.44-.87.69-1.3-14.58-19.88-3.32-50.4-.48-57.29a5.59,5.59,0,0,1,4.67-3.26c22.87-2.19,38.44,4.12,48.56,11.5.93-.43,1.86-.86,2.8-1.27a129.06,129.06,0,0,1,107.4,2.12l0,0c1.24.61,2.47,1.24,3.7,1.89l.69.37s0,0,0,0l1.28.71c9.73-8.82,26.5-17.93,53.3-15.36a5.62,5.62,0,0,1,4.68,3.26c3.27,7.91,17.64,47.06-8.86,65.36A101.21,101.21,0,0,1,330,242.42c0,2.37-.09,4.72-.25,7l0,.15v.06C326.85,280.65,300.18,305,269,305H239.89l0,0a27.71,27.71,0,0,1-3.76,9.2s0,0,0,0h29.38c6.66,0,12.4,5.45,12.26,12.1a11.83,11.83,0,0,1-2.16,6.58s0,0,0,0a34.56,34.56,0,0,1,25.79,11.92,34.89,34.89,0,0,1,5.84,9.7v3.14c1.68,5,1.85,9.76,1.82,15,0,4.6-.06,9.21-.06,13.81v8.39a11.77,11.77,0,0,0,1.18,1.62V417A218.6,218.6,0,0,0,437.09,218.54C437.09,97.84,339.24,0,218.54,0ZM399,321a12.34,12.34,0,0,1-1.41,3l-23,35.79a13,13,0,0,1-18,3.93l-1.33-.85-8.89-5.71a12.4,12.4,0,0,1-1.42-1,5.92,5.92,0,0,1-.45-.41.71.71,0,0,1-.15-.15,6.75,6.75,0,0,1-.53-.54h0l-.08-.09a5.85,5.85,0,0,1-.4-.47c-.12-.14-.24-.28-.35-.43a1.43,1.43,0,0,1-.14-.2c-.14-.19-.28-.39-.4-.59a7.6,7.6,0,0,1-.43-.72c-.17-.3-.32-.6-.46-.91v37a12.13,12.13,0,0,1-12.14,12.14h-8.86a12.13,12.13,0,0,1-10.38-5.84v-8.39c0-4.6,0-9.21.06-13.81,0-5.25-.14-10-1.82-15V344.29a12.14,12.14,0,0,1,12.14-12.13h8.86a12.12,12.12,0,0,1,11.82,9.38,11.22,11.22,0,0,1,1-2,3.18,3.18,0,0,1,.23-.4l21.85-34a6,6,0,0,1-2.67-5v-4.73a5.87,5.87,0,0,1,.35-2,5.87,5.87,0,0,1-.35-2V286.6a6,6,0,0,1,3.08-5.26,8.09,8.09,0,0,1-.15-1.56V258.57a8.4,8.4,0,0,1,8.41-8.41h11.88a8.4,8.4,0,0,1,8.41,8.41v21.21a8.37,8.37,0,0,1-.32,2.31,8.27,8.27,0,0,1-1.56,3,8.35,8.35,0,0,1-6.53,3.12H373a8.39,8.39,0,0,1-8.25-6.8,5.27,5.27,0,0,0-.16,1.33v4.73a5.79,5.79,0,0,0,.54,2.46,5.88,5.88,0,0,1,2.55-.57H389a6,6,0,0,1,5.49,3.56l.37-.19a4.71,4.71,0,0,1-.19.64,5.87,5.87,0,0,1,.35,2v4.73a6.21,6.21,0,0,1-.16,1.38,6,6,0,0,1-2.52,3.63l1.35.87A13,13,0,0,1,399,321ZM349.82,221a1,1,0,0,0,0,.1h0ZM406,217.76a9.4,9.4,0,0,1-.2.92c-.17.75-.38,1.5-.62,2.24a29.14,29.14,0,0,1-8,12.45,28.34,28.34,0,0,1-5.9,4.19,28.86,28.86,0,0,1-7.59,2.8l-.23,0a28.73,28.73,0,0,1-5.84.6,29,29,0,0,1-9.23-1.51l-.29-.1a29.28,29.28,0,0,1-12-8,28.68,28.68,0,0,1-6.75-13.64q-1.1-5.34-2.2-10.68l-1.89-9.14s-.15-.71-.15-.71l1-.2,7.84-1.62c.44,2.1.87,4.21,1.31,6.31q1.17,5.7,2.35,11.38c.66,3.21,1.26,6.42,3,9.27a20,20,0,0,0,19.6,9.49c.51-.06,1-.15,1.52-.25A20,20,0,0,0,394,223.31c.17-.25.34-.51.5-.77l.28-.47a18.06,18.06,0,0,0,1-2c.22-.49.41-1,.59-1.49s.29-.86.4-1.3.18-.67.25-1,.16-.77.22-1.16a18.31,18.31,0,0,0,.07-5.33,18.15,18.15,0,0,0,0-4.42c0-.24,0-.48-.09-.71s-.1-.6-.16-.89l-2.1-10.2c-.44-2.15-.89-4.3-1.33-6.45l7.83-1.62q.69,3.28,1.36,6.58l2.4,11.59c.09.46.19.92.28,1.38s.17.87.26,1.3.14.77.2,1.15.13.85.18,1.27c0,.14,0,.28.06.42l0,.11,0,.11h0c0,.2.05.39.07.59a23.28,23.28,0,0,1,.1,3.45A28,28,0,0,1,406,217.76Zm-81.2,31.48v-.12c.15-2.16.24-4.42.24-6.7a97.55,97.55,0,0,0-15.85-53.08l-.28-.45-.25-.37a103.27,103.27,0,0,0-9.3-12h0a112.52,112.52,0,0,0-30.59-24A123,123,0,0,0,162,148c-.34.15-.68.29-1,.45-1.2.52-2.38,1.07-3.55,1.64a110.8,110.8,0,0,0-45,39l-.46.72c-.44.69-.87,1.38-1.3,2.08-1.18,1.95-2.28,3.93-3.32,5.94a.67.67,0,0,1-.06.12,96.82,96.82,0,0,0-10.81,44.39c0,2.28.07,4.54.24,6.7v.14A56.43,56.43,0,0,0,152.46,300H269A56.43,56.43,0,0,0,324.75,249.24Zm-52,76c0-.17-.05-.33-.08-.49s-.1-.44-.17-.65a2.09,2.09,0,0,0-.08-.23,4.7,4.7,0,0,0-.41-.95c-.07-.13-.14-.26-.22-.38a7.27,7.27,0,0,0-5.59-3.28l-.53,0H232c-.22.23-.47.45-.72.67s-.5.44-.75.65l-.87.7c-.37.28-.74.55-1.12.81s-.7.48-1.06.69h0a1.27,1.27,0,0,1-.22.13c-.28.18-.58.36-.89.52a1.87,1.87,0,0,1-.31.17c-.26.15-.54.29-.81.42a3.54,3.54,0,0,1-.48.23c-.21.11-.44.21-.66.31l-.1,0-.4.17c-.3.13-.62.26-.93.37l-.06,0-.18.07c-.31.12-.62.23-.94.32l-.56.18-.24.07c-.38.11-.75.21-1.13.3s-.78.18-1.18.26l-.09,0q-1,.19-2,.3a5.54,5.54,0,0,1-.57.07,26.23,26.23,0,0,1-2.67.13,27,27,0,0,1-5.34-.52h0c-.41-.08-.79-.17-1.17-.26s-.82-.21-1.24-.33l-.05,0c-.26-.07-.53-.16-.79-.25l-.69-.23-.47-.18-.05,0-.06,0-.37-.14-.2-.09-.1,0c-.16-.07-.33-.13-.48-.21l-.13-.06a2.92,2.92,0,0,1-.44-.19l-.76-.37c-.17-.08-.34-.17-.49-.26s-.44-.23-.67-.36L199,323l-.59-.37c-.22-.13-.43-.27-.65-.42l-.37-.25h0c-.28-.19-.57-.4-.84-.62a1.37,1.37,0,0,1-.23-.17c-.2-.16-.4-.31-.59-.48s-.42-.34-.64-.53l-.17-.16c-.29-.25-.58-.51-.85-.78H157.87a6.85,6.85,0,0,0-6.85,6.85h0a5.32,5.32,0,0,0,0,.69v.05a4.35,4.35,0,0,0,.1.63v0a6.92,6.92,0,0,0,.4,1.26,1.36,1.36,0,0,0,.1.21,7.14,7.14,0,0,0,6,4l.52,0H265.69l.58,0a7.64,7.64,0,0,0,2.12-.45l.33-.14.33-.15.28-.16a3,3,0,0,0,.38-.23,3.62,3.62,0,0,0,.32-.22l.22-.18a5.57,5.57,0,0,0,.51-.46,3.78,3.78,0,0,0,.38-.43,2.25,2.25,0,0,0,.24-.3,2.33,2.33,0,0,0,.27-.37,3.66,3.66,0,0,0,.26-.42s0,0,0,0a2.26,2.26,0,0,0,.11-.22,5.73,5.73,0,0,0,.4-1,2.76,2.76,0,0,0,.08-.27,2.79,2.79,0,0,0,.1-.39,1.86,1.86,0,0,0,.06-.34,6.09,6.09,0,0,0,.1-1.13h0a5.32,5.32,0,0,0,0-.69A.76.76,0,0,0,272.72,325.23Zm-80.85-18.18a22.52,22.52,0,0,0,.88,2.09c.09.19.17.36.27.54a22.22,22.22,0,0,0,1.21,2.06l.5.72c.17.25.35.48.53.71s.39.49.59.73.17.19.26.29.23.27.36.4.24.27.37.4.41.41.62.61a8.36,8.36,0,0,0,.62.58c.2.19.4.36.61.53s.46.38.7.56l.76.56c.19.14.41.28.62.41a6.56,6.56,0,0,0,.68.43c.25.15.5.3.76.44a22.29,22.29,0,0,0,3.82,1.66l.5.16.84.23a3.69,3.69,0,0,0,.45.11l.39.08.54.11c.22.05.46.09.69.12l.7.1.7.08h0c.31,0,.63.06.94.07s.76,0,1.15,0A22.24,22.24,0,0,0,229.14,315l.5-.54c.24-.27.48-.55.71-.83s.46-.57.68-.86h0c.22-.3.43-.61.64-.92s.38-.58.55-.87.35-.59.51-.89.21-.4.31-.6.29-.6.43-.91.25-.56.36-.85l0-.08c.14-.35.27-.71.39-1.07s.17-.52.24-.78.16-.53.22-.79a0,0,0,0,0,0,0H191.27a0,0,0,0,0,0,0c.1.36.2.73.31,1.09S191.76,306.73,191.87,307.05ZM116.52,411.86l0,0V366.46c0,.38,0,.76,0,1.14Zm-5-45.59c0,.44,0,.88,0,1.33v41.53l0,0h0c0-2.42,0-5.35,0-8.54Zm232.2-11.36a5.85,5.85,0,0,1-.4-.47c-.12-.14-.24-.28-.35-.43a1.43,1.43,0,0,1-.14-.2c-.14-.19-.28-.39-.4-.59a7.6,7.6,0,0,1-.43-.72c-.17-.3-.32-.6-.46-.91v5.67a2.23,2.23,0,0,1,.29-1.11,1.78,1.78,0,0,1,.25-.36,2.23,2.23,0,0,1,.49-.43,2.69,2.69,0,0,1,.38-.19,2.26,2.26,0,0,1,.85-.17Z"/><path d="M91.71,249.4c-.16-1.75-.25-3.58-.25-5.43v-1.55C91.46,244.79,91.54,247.14,91.71,249.4Z"/><path d="M330,242.42V244c0,1.85-.1,3.68-.25,5.43C329.92,247.14,330,244.79,330,242.42Z"/><path class="cls-2" d="M308.44,357.71s0,0,0-.06c-.35-1-.74-2.07-1.16-3.08v3.14c1.68,5,1.85,9.76,1.82,15,0,4.6-.06,9.21-.06,13.81v8.39a11.77,11.77,0,0,0,1.18,1.62v-10c0-4.6,0-9.21.06-13.81C310.29,367.47,310.12,362.71,308.44,357.71Z"/><path class="cls-1" d="M272.77,326.08a6.86,6.86,0,0,1-6.85,6.86h-108a6.86,6.86,0,1,1,0-13.71H194c.28.27.56.53.85.78l.18.16a7.69,7.69,0,0,0,.63.53c.19.17.39.32.59.48l.23.17a10.25,10.25,0,0,0,.85.62h0l.37.25c.21.15.42.29.64.42l.59.37.5.29c.23.13.44.25.67.36s.32.18.49.26l.76.37a3.43,3.43,0,0,0,.44.19l.13.06.48.21.11,0,.2.09.37.14.06,0,0,0,.47.18.69.23c.26.09.53.18.8.25l0,0,1.24.33c.38.09.76.18,1.17.26h0a27.11,27.11,0,0,0,5.35.52,26.17,26.17,0,0,0,2.66-.13,5.41,5.41,0,0,0,.58-.07c.67-.07,1.35-.17,2-.3l.1,0c.39-.08.79-.16,1.18-.26s.75-.19,1.13-.3l.23-.07.56-.18a8.64,8.64,0,0,0,.94-.32l.18-.07.06,0c.31-.11.63-.24.93-.37l.41-.17.09,0,.67-.31a4.09,4.09,0,0,0,.47-.23q.42-.19.81-.42a1.54,1.54,0,0,0,.31-.17c.31-.16.61-.34.9-.52a1.2,1.2,0,0,0,.21-.13h0c.36-.21.7-.45,1.06-.69s.75-.53,1.12-.81.58-.46.87-.7.51-.43.75-.65.5-.44.73-.67h33.94A6.85,6.85,0,0,1,272.77,326.08Z"/><path class="cls-1" d="M234.74,305A22.46,22.46,0,0,1,213,321.86c-.39,0-.78,0-1.16,0s-.63,0-.94-.07h0l-.71-.08-.7-.1q-.34,0-.69-.12l-.54-.11c-.56-.12-1.13-.26-1.67-.42l-.5-.16a22.05,22.05,0,0,1-3.83-1.66c-.26-.14-.51-.29-.76-.44a7.82,7.82,0,0,1-.68-.43l-.62-.41-.76-.56c-.24-.18-.47-.37-.7-.56l-.61-.53c-.21-.18-.41-.37-.62-.58l-.61-.61a22.14,22.14,0,0,1-5.61-10Z"/><path class="cls-1" d="M156.52,144.91l-1.81.86c-1.25.61-2.5,1.25-3.75,1.91a116,116,0,0,0-42,37.64l-.63.78-.52,1q-1.19,1.84-2.29,3.74c-.61,1-1.19,2.09-1.75,3.14-14.58-19.88-3.32-50.4-.48-57.29a5.59,5.59,0,0,1,4.67-3.26C130.83,131.22,146.4,137.53,156.52,144.91Z"/><path class="cls-1" d="M321.58,202c-.56-1.33-1.15-2.65-1.79-3.95-1-2-2-3.93-3.06-5.86-1-1.75-2-3.47-3.1-5.17l-.2-.32-.35-.52a115.6,115.6,0,0,0-40.62-37.44c9.73-8.82,26.5-17.93,53.3-15.36a5.62,5.62,0,0,1,4.68,3.26C333.71,144.58,348.08,183.73,321.58,202Z"/><path class="cls-1" d="M309.15,189.34l-.28-.45-.25-.37a103.27,103.27,0,0,0-9.3-12h0a112.52,112.52,0,0,0-30.59-24A123,123,0,0,0,162,148c-.34.15-.68.29-1,.45-1.2.52-2.38,1.07-3.55,1.64a110.8,110.8,0,0,0-45,39l-.46.72c-.44.69-.87,1.38-1.3,2.08-1.18,1.95-2.28,3.93-3.32,5.94a.67.67,0,0,1-.06.12,96.82,96.82,0,0,0-10.81,44.39c0,2.28.07,4.54.24,6.7v.14A56.43,56.43,0,0,0,152.46,300H269a56.43,56.43,0,0,0,55.75-50.73v-.12c.15-2.16.24-4.42.24-6.7A97.55,97.55,0,0,0,309.15,189.34Zm-.38,54.77,0,.22c-2.35,20.23-23.92,36.08-49.11,36.08H166.33c-25.18,0-46.75-15.85-49.11-36.08v-.22c-.13-1.46-.2-3-.2-4.51,0-12.6,4.51-24.92,13.08-35.7l.68-.94.66-.69c17.63-20.92,48-33.38,81.55-33.38,33.92,0,64.6,12.73,82.16,34.08l.71.59v.31C304.44,214.66,309,227,309,239.6,309,241.13,308.9,242.65,308.77,244.11Z"/><path class="cls-2" d="M228.78,243.83H197.19a2.71,2.71,0,0,0-2.66,3.37c1.86,7.06,9.42,12.34,18.44,12.34s16.6-5.28,18.47-12.34A2.71,2.71,0,0,0,228.78,243.83Z"/><path class="cls-2" d="M295.85,203.87v-.31l-.71-.59c-17.56-21.35-48.24-34.08-82.16-34.08-33.54,0-63.92,12.46-81.55,33.38l-.66.69-.68.94C121.52,214.68,117,227,117,239.6c0,1.54.07,3.05.2,4.51v.22c2.36,20.23,23.93,36.08,49.11,36.08h93.31c25.19,0,46.76-15.85,49.11-36.08l0-.22c.13-1.46.19-3,.19-4.51C309,227,304.44,214.66,295.85,203.87ZM231.44,247.2c-1.87,7.06-9.43,12.34-18.47,12.34s-16.58-5.28-18.44-12.34a2.71,2.71,0,0,1,2.66-3.37h31.59A2.71,2.71,0,0,1,231.44,247.2Z"/><path class="cls-1" d="M231.44,247.2c-1.87,7.06-9.43,12.34-18.47,12.34s-16.58-5.28-18.44-12.34a2.71,2.71,0,0,1,2.66-3.37h31.59A2.71,2.71,0,0,1,231.44,247.2Z"/><path class="cls-3" d="M310.26,372.72c0,4.6-.06,9.21-.06,13.81v8.39a12.06,12.06,0,0,1-1.76-6.3V357.71C310.12,362.71,310.29,367.47,310.26,372.72Z"/><path class="cls-4" d="M399,321a12.34,12.34,0,0,1-1.41,3l-23,35.79a13,13,0,0,1-18,3.93l-10.22-6.56a13,13,0,0,1-5.14-15.61,11.22,11.22,0,0,1,1-2,13,13,0,0,0,5.34,15l10.22,6.56a13,13,0,0,0,18-3.93l23-35.79A3.18,3.18,0,0,0,399,321Z"/><path class="cls-5" d="M399,321a3.18,3.18,0,0,1-.23.4l-23,35.79a13,13,0,0,1-18,3.93l-10.22-6.56a13,13,0,0,1-5.34-15,3.18,3.18,0,0,1,.23-.4l21.85-34,1.12-1.75a13,13,0,0,1,18-3.93l8.87,5.69,1.35.87A13,13,0,0,1,399,321Z"/><path class="cls-5" d="M393.28,258.57v21.21a8.37,8.37,0,0,1-.32,2.31,8.27,8.27,0,0,1-1.56,3,8.35,8.35,0,0,1-6.53,3.12H373a8.39,8.39,0,0,1-8.25-6.8.11.11,0,0,1,0-.05,8.09,8.09,0,0,1-.15-1.56V258.57a8.4,8.4,0,0,1,8.41-8.41h11.88A8.4,8.4,0,0,1,393.28,258.57Z"/><path class="cls-6" d="M395,293.37v4.73a6.21,6.21,0,0,1-.16,1.38,6,6,0,0,1-2.52,3.63,6.08,6.08,0,0,1-3.34,1H367.67a6,6,0,0,1-6-6v-4.73a5.87,5.87,0,0,1,.35-2,6,6,0,0,1,2.75-3.25l.37-.19a5.88,5.88,0,0,1,2.55-.57H389a6,6,0,0,1,5.49,3.56,3,3,0,0,1,.18.45A5.87,5.87,0,0,1,395,293.37Z"/><path class="cls-2" d="M349.86,221.12h0l0-.11A1,1,0,0,0,349.86,221.12Z"/><path class="cls-1" d="M406.31,209.34l0-.11c0,.07,0,.15,0,.22h0A.41.41,0,0,0,406.31,209.34Z"/><path class="cls-7" d="M406.36,210c0-.41-.08-.82-.13-1.23s-.11-.84-.18-1.27-.13-.77-.2-1.15-.17-.86-.26-1.3-.19-.92-.28-1.38l-2.4-11.59q-.59-2.85-1.18-5.7a.91.91,0,0,0-1.06-.7L394.6,187a.91.91,0,0,0-.7,1.06c.38,1.86.77,3.71,1.15,5.57.68,3.35,1.47,6.69,2.09,10,.06.35.12.7.17,1s.07.47.09.71a33.18,33.18,0,0,1-.12,9.75c-.06.39-.14.78-.22,1.16s-.15.67-.25,1-.25.87-.4,1.3-.37,1-.59,1.49a18.06,18.06,0,0,1-1,2,1.4,1.4,0,0,1-.09.17c-.06.1-.12.2-.19.3-.16.26-.33.52-.5.77a20,20,0,0,1-12.42,8.29c-.51.1-1,.19-1.52.25a20,20,0,0,1-19.6-9.49c-1.72-2.85-2.32-6.06-3-9.27q-1.17-5.68-2.35-11.38c-.38-1.81-.75-3.62-1.13-5.43a.9.9,0,0,0-1.06-.7L346,197l-1,.2s.14.68.15.71l1.89,9.14q1.09,5.34,2.2,10.68a28.68,28.68,0,0,0,6.75,13.64,29.28,29.28,0,0,0,12,8l.29.1A29,29,0,0,0,377.6,241a28.73,28.73,0,0,0,5.84-.6l.23,0a28.86,28.86,0,0,0,7.59-2.8,28.34,28.34,0,0,0,5.9-4.19,29.14,29.14,0,0,0,8-12.45c.24-.74.45-1.49.62-2.24.07-.3.14-.61.2-.92A28.5,28.5,0,0,0,406.36,210Zm-.05,4.26c0-.07,0-.15,0-.22l0,.22Z"/><path class="cls-2" d="M406.33,209.45h0c0-.07,0-.15,0-.22l0,.11Z"/><path class="cls-2" d="M406.33,209.45h0c0-.07,0-.15,0-.22l0,.11Z"/><path class="cls-1" d="M159.31,223.75A10.16,10.16,0,0,1,161,217a16.14,16.14,0,0,1,5.16-4.85,27,27,0,0,1,26.76,0,16.18,16.18,0,0,1,5.17,4.85,10.21,10.21,0,0,1,1.72,6.78.51.51,0,0,1-1,0v0c-.72-4.15-3.93-7-7.5-8.69a29.36,29.36,0,0,0-23.53,0c-3.57,1.72-6.79,4.54-7.5,8.69v0a.51.51,0,0,1-1,0Z"/><path class="cls-1" d="M218,223.75a10.21,10.21,0,0,1,1.72-6.78,16.18,16.18,0,0,1,5.17-4.85,27,27,0,0,1,26.76,0,16.14,16.14,0,0,1,5.16,4.85,10.16,10.16,0,0,1,1.72,6.78.5.5,0,0,1-.57.43.51.51,0,0,1-.43-.41v0c-.71-4.15-3.93-7-7.5-8.69a29.36,29.36,0,0,0-23.53,0c-3.57,1.72-6.78,4.54-7.5,8.69v0a.51.51,0,0,1-1,0Z"/><path class="cls-5" d="M340.4,344.29v44.33a12.13,12.13,0,0,1-12.14,12.14H319.4a12.13,12.13,0,0,1-9.2-4.22,11.77,11.77,0,0,1-1.18-1.62v-8.39c0-4.6,0-9.21.06-13.81,0-5.25-.14-10-1.82-15V344.29a12.14,12.14,0,0,1,12.14-12.13h8.86A12.13,12.13,0,0,1,340.4,344.29Z"/><path class="cls-1" d="M341.58,357.26V376a1.15,1.15,0,0,0,2,.82l11.57-11.56a1.81,1.81,0,0,0-.22-2.75l-9.73-7A2.26,2.26,0,0,0,341.58,357.26Z"/><rect class="cls-8" x="373.25" y="243.96" width="14" height="6.2" rx="2.95"/><path class="cls-2" d="M321.58,202c-.56-1.33-1.15-2.65-1.79-3.95-1-2-2-3.93-3.06-5.86-1-1.75-2-3.47-3.1-5.17l-.2-.32-.35-.52a115.6,115.6,0,0,0-40.62-37.44l-1.28-.71s0,0,0,0l-.69-.37c-1.23-.65-2.46-1.28-3.7-1.89l0,0a129.06,129.06,0,0,0-107.4-2.12c-.94.41-1.87.84-2.8,1.27l-1.81.86c-1.25.61-2.5,1.25-3.75,1.91a116,116,0,0,0-42,37.64l-.63.78-.52,1q-1.19,1.84-2.29,3.74c-.61,1-1.19,2.09-1.75,3.14-.25.43-.48.87-.69,1.3a102,102,0,0,0-11.62,47.16c0,2.37.07,4.72.25,7v.21c2.88,31,29.56,55.36,60.75,55.36h33.62l0,0a27.53,27.53,0,0,0,3.77,9.2s0,0,0,0h-32a11.85,11.85,0,0,0-9.66,18.71h-2a34.73,34.73,0,0,0-32.58,22.82s0,0,0,0a16.9,16.9,0,0,0-13.94-7.35H94.83A17,17,0,0,0,77.9,365.36s0,12.48,0,20.46c1.64,1.4,3.3,2.75,5,4.09V365.36a12,12,0,0,1,11.93-11.94h4.76a12,12,0,0,1,12,12v35.23c0,3.19,0,6.12,0,8.54,1.64.92,3.29,1.83,5,2.7V367.6c0-.38,0-.76,0-1.14a29.68,29.68,0,0,1,29.63-28.52H275.24a29.7,29.7,0,0,1,29.7,29.7v46.22a30.14,30.14,0,0,1-.55,5.72l1.48-.64c1.17-.5,2.33-1,3.48-1.55l.85-.39V396.54a11.77,11.77,0,0,1-1.18-1.62v-8.39c0-4.6,0-9.21.06-13.81,0-5.25-.14-10-1.82-15v-3.14A33.89,33.89,0,0,0,289,335.79a34.52,34.52,0,0,0-13.4-2.84s0,0,0,0a11.83,11.83,0,0,0,2.16-6.58c.14-6.65-5.6-12.1-12.26-12.1H236.13s0,0,0,0a27.71,27.71,0,0,0,3.76-9.2l0,0H269c31.18,0,57.85-24.32,60.73-55.36v-.06l0-.15c.16-2.26.25-4.61.25-7A101.21,101.21,0,0,0,321.58,202Zm-55.94,117.2.53,0a7.27,7.27,0,0,1,5.59,3.28c.08.12.15.25.22.38a4.7,4.7,0,0,1,.41.95,2.09,2.09,0,0,1,.08.23c.07.21.12.43.17.65s.06.32.08.49a.76.76,0,0,1,0,.15,5.32,5.32,0,0,1,0,.69h0a6.09,6.09,0,0,1-.1,1.13,1.86,1.86,0,0,1-.06.34,2.79,2.79,0,0,1-.1.39,2.76,2.76,0,0,1-.08.27,5.73,5.73,0,0,1-.4,1,2.26,2.26,0,0,1-.11.22s0,0,0,0a3.66,3.66,0,0,1-.26.42,2.33,2.33,0,0,1-.27.37,2.25,2.25,0,0,1-.24.3,3.78,3.78,0,0,1-.38.43,5.57,5.57,0,0,1-.51.46l-.22.18a3.62,3.62,0,0,1-.32.22,3,3,0,0,1-.38.23l-.28.16-.33.15-.33.14a7.64,7.64,0,0,1-2.12.45l-.58,0H158.13l-.52,0a7.14,7.14,0,0,1-6-4,1.36,1.36,0,0,1-.1-.21,6.92,6.92,0,0,1-.4-1.26v0a4.35,4.35,0,0,1-.1-.63v-.05a5.32,5.32,0,0,1,0-.69h0a6.85,6.85,0,0,1,6.85-6.85H194c.27.27.56.53.85.78l.17.16c.22.19.42.37.64.53s.39.32.59.48a1.37,1.37,0,0,0,.23.17c.27.22.56.43.84.62h0l.37.25c.22.15.43.29.65.42l.59.37.5.29c.23.13.44.25.67.36s.32.18.49.26l.76.37a2.92,2.92,0,0,0,.44.19l.13.06c.15.08.32.14.48.21l.1,0,.2.09.37.14.06,0,.05,0,.47.18.69.23c.26.09.53.18.79.25l.05,0c.42.12.82.23,1.24.33s.76.18,1.17.26h0a27,27,0,0,0,5.34.52,26.23,26.23,0,0,0,2.67-.13,5.54,5.54,0,0,0,.57-.07q1-.11,2-.3l.09,0c.4-.08.8-.16,1.18-.26s.75-.19,1.13-.3l.24-.07.56-.18c.32-.09.63-.2.94-.32l.18-.07.06,0c.31-.11.63-.24.93-.37l.4-.17.1,0c.22-.1.45-.2.66-.31a3.54,3.54,0,0,0,.48-.23c.27-.13.55-.27.81-.42a1.87,1.87,0,0,0,.31-.17c.31-.16.61-.34.89-.52a1.27,1.27,0,0,0,.22-.13h0c.36-.21.7-.45,1.06-.69s.75-.53,1.12-.81l.87-.7c.25-.21.51-.43.75-.65s.5-.44.72-.67ZM191.24,305a0,0,0,0,1,0,0h43.42a0,0,0,0,1,0,0c-.06.26-.14.53-.22.79s-.15.52-.24.78-.25.72-.39,1.07l0,.08c-.11.29-.23.57-.36.85s-.28.61-.43.91-.2.4-.31.6-.33.6-.51.89-.36.58-.55.87-.42.62-.64.92h0c-.22.29-.45.58-.68.86s-.47.56-.71.83l-.5.54A22.24,22.24,0,0,1,213,321.86c-.39,0-.77,0-1.15,0s-.63,0-.94-.07h0l-.7-.08-.7-.1c-.23,0-.47-.07-.69-.12l-.54-.11-.39-.08a3.69,3.69,0,0,1-.45-.11l-.84-.23-.5-.16a22.29,22.29,0,0,1-3.82-1.66c-.26-.14-.51-.29-.76-.44a6.56,6.56,0,0,1-.68-.43c-.21-.13-.43-.27-.62-.41l-.76-.56c-.24-.18-.48-.37-.7-.56s-.41-.34-.61-.53a8.36,8.36,0,0,1-.62-.58c-.21-.2-.42-.4-.62-.61s-.25-.26-.37-.4-.25-.27-.36-.4-.18-.19-.26-.29-.4-.48-.59-.73-.36-.46-.53-.71l-.5-.72a22.22,22.22,0,0,1-1.21-2.06c-.1-.18-.18-.35-.27-.54a22.52,22.52,0,0,1-.88-2.09c-.11-.32-.22-.64-.32-1S191.34,305.36,191.24,305Zm133.52-55.88v.12A56.43,56.43,0,0,1,269,300H152.46a56.43,56.43,0,0,1-55.75-50.71v-.14c-.17-2.16-.24-4.42-.24-6.7A96.82,96.82,0,0,1,107.27,198a.67.67,0,0,0,.06-.12c1-2,2.14-4,3.32-5.94.43-.7.86-1.39,1.3-2.08l.46-.72a110.8,110.8,0,0,1,45-39c1.17-.57,2.35-1.12,3.55-1.64.33-.16.67-.3,1-.45a123,123,0,0,1,106.76,4.47,112.52,112.52,0,0,1,30.59,24h0a103.27,103.27,0,0,1,9.3,12l.25.37.28.45A97.55,97.55,0,0,1,325,242.42C325,244.7,324.91,247,324.76,249.12Z"/></g></g></svg>