<svg xmlns="http://www.w3.org/2000/svg" viewBox="0 0 477.18 399.11"><defs><style>.cls-1{fill:#3c3c3c;}.cls-2{fill:#fff;}.cls-3{fill:none;}</style></defs><title>Recurso 7</title><g id="Capa_2" data-name="Capa 2"><g id="Capa_1-2" data-name="Capa 1"><path class="cls-1" d="M415.22,207.6a207.33,207.33,0,0,1-87.4,169.28q-2.35,1.68-4.78,3.29V340.53a11.41,11.41,0,0,0-11.4-11.41h-4.55a11.43,11.43,0,0,0-11.42,11.41v55.12c-2.57,1.21-5.17,2.37-7.8,3.46a28.07,28.07,0,0,0,2.77-12.24v-44.2a28.37,28.37,0,0,0-28.34-28.34H139a28.37,28.37,0,0,0-28.31,27.25v46.5a28.23,28.23,0,0,0,.33,3.33c-1.72-.91-3.41-1.84-5.1-2.79v-.4c0-.45,0-.9,0-1.35v-44.2c0-.43,0-.85,0-1.27v-.87a11.43,11.43,0,0,0-11.41-11.41H89.89a11.42,11.42,0,0,0-11.4,11.41v29.66c-1.61-1.28-3.22-2.59-4.78-3.92A207.18,207.18,0,0,1,0,207.6C0,93,92.94,0,207.6,0S415.22,93,415.22,207.6Z"/><path d="M86.9,229.73c-.15-1.67-.23-3.42-.23-5.18v-1.49C86.67,225.33,86.74,227.57,86.9,229.73Z"/><path d="M314.58,223.06v1.49c0,1.76-.08,3.51-.24,5.18C314.51,227.57,314.58,225.33,314.58,223.06Z"/><path d="M105.84,342.67v44.2c0,.45,0,.9,0,1.35V341.4C105.85,341.82,105.84,342.24,105.84,342.67Z"/><path class="cls-1" d="M311.64,324.34h-4.55a16.21,16.21,0,0,0-13.56,7.34,33.14,33.14,0,0,0-30.94-22.12,11.32,11.32,0,0,0-9.24-17.88h-28.5a26.52,26.52,0,0,0,3.62-8.85H256.3a58.73,58.73,0,0,0,58-52.9v-.05l0-.15c.15-2.16.24-4.4.24-6.67a96.58,96.58,0,0,0-8-38.59c-.53-1.27-1.1-2.53-1.71-3.77q-1.35-2.83-2.92-5.6c-.93-1.67-1.93-3.32-3-4.94l-.19-.31-.34-.49a110.44,110.44,0,0,0-38.81-35.78l-1.22-.67s0,0,0,0l-.66-.36c-1.18-.62-2.35-1.22-3.54-1.8l0,0a123.35,123.35,0,0,0-102.62-2c-.9.39-1.79.81-2.68,1.22-.58.26-1.14.54-1.73.82-1.19.58-2.38,1.19-3.58,1.82a110.91,110.91,0,0,0-40.13,36l-.6.74-.5.94c-.75,1.17-1.48,2.37-2.19,3.57-.58,1-1.13,2-1.67,3-.24.41-.46.83-.66,1.24a97.43,97.43,0,0,0-11.1,45.06c0,2.27.07,4.51.24,6.67v.2a58.74,58.74,0,0,0,58,52.9H177.1a26.34,26.34,0,0,0,3.63,8.85H150.12a11.32,11.32,0,0,0-9.23,17.87H139a33.18,33.18,0,0,0-31.14,21.85,16.18,16.18,0,0,0-13.35-7.06H89.89a16.22,16.22,0,0,0-16.18,16.19v25.74c1.56,1.33,3.17,2.64,4.78,3.92V340.53a11.42,11.42,0,0,1,11.4-11.41h4.58a11.43,11.43,0,0,1,11.41,11.41v48.09c1.69.95,3.38,1.88,5.1,2.79a28.23,28.23,0,0,1-.33-3.33c0-.4,0-.8,0-1.21v-44.2c0-.36,0-.73,0-1.09A28.37,28.37,0,0,1,139,314.33H262.3a28.37,28.37,0,0,1,28.34,28.34v44.2a28.07,28.07,0,0,1-2.77,12.24c2.63-1.09,5.23-2.25,7.8-3.46V340.53a11.43,11.43,0,0,1,11.42-11.41h4.55A11.41,11.41,0,0,1,323,340.53v39.64q2.43-1.6,4.78-3.29V340.53A16.2,16.2,0,0,0,311.64,324.34ZM145,278.05A53.92,53.92,0,0,1,91.69,229.6v-.13c-.17-2.07-.23-4.23-.23-6.41a92.44,92.44,0,0,1,10.33-42.41l0-.11c1-1.92,2-3.82,3.18-5.68.41-.67.82-1.33,1.24-2l.44-.68a105.83,105.83,0,0,1,43-37.31c1.12-.54,2.25-1.07,3.4-1.56.31-.16.64-.29,1-.43a117.56,117.56,0,0,1,102,4.27,107.61,107.61,0,0,1,29.23,22.89h0a97.94,97.94,0,0,1,8.89,11.5l.24.36.27.43a93.17,93.17,0,0,1,15.14,50.71c0,2.18-.08,4.34-.23,6.41v.11a53.92,53.92,0,0,1-53.27,48.47Zm78.61,4.78A21.44,21.44,0,0,1,202.78,299c-.37,0-.74,0-1.1,0s-.6,0-.9-.07h-.05l-.66-.08c-.23,0-.46-.05-.67-.09s-.45-.07-.66-.12a4.76,4.76,0,0,1-.52-.1c-.53-.12-1.08-.25-1.6-.4l-.48-.15a21.91,21.91,0,0,1-3.65-1.59c-.25-.13-.49-.28-.73-.42s-.45-.27-.65-.41-.41-.26-.59-.39l-.73-.54c-.22-.17-.45-.35-.66-.53s-.4-.33-.59-.51A7.54,7.54,0,0,1,188,293c-.2-.2-.4-.39-.59-.59a21.23,21.23,0,0,1-5.36-9.57ZM258,307.63a6.52,6.52,0,0,1-4.64,1.92H150.12a6.55,6.55,0,0,1,0-13.1h34.54c.26.26.54.51.82.75a1.14,1.14,0,0,0,.16.15c.21.18.4.36.61.51s.37.3.56.46l.22.16c.26.21.54.41.81.59h0l.35.24c.21.14.41.28.62.4l.56.36.48.27c.22.13.42.24.64.35s.31.17.47.24.48.24.73.36a3.31,3.31,0,0,0,.42.18l.12.06.46.2.09,0,.2.08.35.14h.06l0,0,.45.18.66.22c.25.08.51.17.76.23l.05,0c.4.12.78.22,1.18.32l1.12.25h0a26.09,26.09,0,0,0,5.1.49,23.93,23.93,0,0,0,2.55-.12,5.52,5.52,0,0,0,.55-.07c.64-.06,1.29-.16,1.94-.28l.09,0L209,303c.36-.09.71-.18,1.08-.29l.23-.06.53-.18c.31-.08.6-.19.9-.3l.17-.07.06,0c.3-.1.6-.23.89-.35l.38-.16.1,0c.21-.1.43-.19.63-.3a3.13,3.13,0,0,0,.45-.22c.26-.12.53-.26.78-.4l.3-.16c.29-.16.58-.33.85-.5l.21-.12h0c.34-.2.66-.43,1-.66s.71-.51,1.07-.78l.83-.67c.24-.2.49-.41.72-.62s.47-.42.68-.64h32.43A6.55,6.55,0,0,1,258,307.63Z"/><path class="cls-2" d="M259.9,303a6.56,6.56,0,0,1-6.54,6.55H150.12a6.55,6.55,0,0,1,0-13.1h34.54c.27.26.53.51.81.75l.17.15a7.17,7.17,0,0,0,.61.51c.18.16.37.3.56.46l.22.16c.27.21.53.41.81.59h0l.35.24c.2.14.41.28.62.4l.57.36a5.46,5.46,0,0,0,.48.27c.21.13.42.24.63.35a5.16,5.16,0,0,0,.47.24c.23.13.47.24.72.36l.42.18.13.06.45.2.11,0,.19.08.35.14h.06l0,0,.44.18.66.22c.25.08.5.17.76.23l.05,0c.39.12.78.22,1.18.32l1.11.25h0a26.34,26.34,0,0,0,5.11.49,24.05,24.05,0,0,0,2.55-.12,4.86,4.86,0,0,0,.55-.07c.65-.06,1.3-.16,1.94-.28l.1,0L209,303c.37-.09.72-.18,1.08-.29l.22-.06.55-.18a9.3,9.3,0,0,0,.89-.3l.18-.07,0,0c.3-.1.61-.23.89-.35l.39-.16.09,0c.22-.1.43-.19.64-.3a4.81,4.81,0,0,0,.46-.22c.26-.12.52-.26.76-.4l.31-.16c.29-.16.57-.33.85-.5a2.12,2.12,0,0,0,.2-.12h0c.34-.2.68-.43,1-.66s.72-.51,1.07-.78.57-.44.83-.67.49-.41.72-.62.48-.42.7-.64h32.43A6.55,6.55,0,0,1,259.9,303Z"/><path class="cls-2" d="M223.57,282.83A21.47,21.47,0,0,1,202.78,299c-.37,0-.73,0-1.09,0s-.62,0-.91-.07h0l-.68-.08c-.22,0-.45-.05-.67-.09s-.44-.07-.66-.12a4.59,4.59,0,0,1-.51-.1c-.54-.12-1.07-.25-1.6-.4l-.48-.15a22,22,0,0,1-3.66-1.59l-.72-.42-.65-.41-.59-.39-.73-.54c-.23-.17-.45-.35-.67-.53l-.57-.51a7.65,7.65,0,0,1-.6-.55c-.2-.2-.4-.39-.59-.59a21.23,21.23,0,0,1-5.36-9.57Z"/><path class="cls-3" d="M181.4,194.42a10.62,10.62,0,1,1-10.62-10.63A10.61,10.61,0,0,1,181.4,194.42Z"/><path class="cls-3" d="M217.88,234H187.69a2.59,2.59,0,0,1-2.53-3.22c1.77-6.75,9-11.79,17.63-11.79s15.85,5,17.62,11.79A2.59,2.59,0,0,1,217.88,234Z"/><path class="cls-3" d="M245.41,194.42a10.62,10.62,0,1,1-10.62-10.63A10.61,10.61,0,0,1,245.41,194.42Z"/><path class="cls-2" d="M148.83,129.9c-.57.26-1.15.54-1.72.82-1.2.58-2.4,1.19-3.58,1.82a110.75,110.75,0,0,0-40.13,36l-.62.74-.49.94c-.76,1.17-1.48,2.37-2.19,3.57-.57,1-1.14,2-1.67,3-13.93-19-3.17-48.15-.45-54.74a5.33,5.33,0,0,1,4.46-3.11C124.28,116.82,139.16,122.84,148.83,129.9Z"/><path class="cls-2" d="M306.55,184.47c-.54-1.27-1.11-2.53-1.71-3.77-.91-1.89-1.88-3.76-2.93-5.6-.93-1.67-1.93-3.32-3-4.94l-.19-.31-.32-.49a110.52,110.52,0,0,0-38.81-35.78c9.28-8.42,25.32-17.13,50.91-14.67A5.35,5.35,0,0,1,315,122C318.13,129.58,331.87,167,306.55,184.47Z"/><path class="cls-2" d="M294.67,172.35l-.28-.43-.23-.36a99,99,0,0,0-8.89-11.5h0A107.56,107.56,0,0,0,256,137.16a117.56,117.56,0,0,0-102-4.27c-.33.14-.64.27-1,.43-1.14.49-2.27,1-3.39,1.56a106,106,0,0,0-43,37.31l-.45.68c-.42.66-.83,1.32-1.23,2-1.13,1.86-2.19,3.76-3.17,5.68l-.06.11a92.58,92.58,0,0,0-10.34,42.41c0,2.18.08,4.34.23,6.41v.13A53.93,53.93,0,0,0,145,278.05H256.3a53.91,53.91,0,0,0,53.27-48.47v-.11c.15-2.07.23-4.23.23-6.41A93.25,93.25,0,0,0,294.67,172.35Zm-.37,52.33,0,.21c-2.25,19.33-22.85,34.47-46.92,34.47H158.21c-24.07,0-44.68-15.14-46.92-34.47l0-.21c-.12-1.4-.19-2.84-.19-4.31,0-12,4.32-23.81,12.51-34.11l.65-.9.62-.66c16.84-20,45.87-31.89,77.92-31.89,32.41,0,61.73,12.16,78.5,32.56l.68.56v.3c8.2,10.31,12.53,22.1,12.53,34.14C294.49,221.83,294.42,223.28,294.3,224.68Z"/><path class="cls-1" d="M282,186.23v-.3l-.68-.56c-16.77-20.4-46.09-32.56-78.5-32.56-32.05,0-61.08,11.9-77.92,31.89l-.62.66-.65.9c-8.19,10.3-12.51,22.07-12.51,34.11,0,1.47.07,2.91.19,4.31l0,.21c2.24,19.33,22.85,34.47,46.92,34.47h89.15c24.07,0,44.67-15.14,46.92-34.47l0-.21c.12-1.4.19-2.85.19-4.31C294.49,208.33,290.16,196.54,282,186.23ZM202.79,219c8.63,0,15.85,5,17.62,11.79a2.59,2.59,0,0,1-2.53,3.22H187.69a2.59,2.59,0,0,1-2.53-3.22C186.93,224,194.16,219,202.79,219Zm-32-35.18a10.62,10.62,0,1,1-10.62,10.63A10.62,10.62,0,0,1,170.78,183.79Zm64,21.24a10.62,10.62,0,1,1,10.62-10.61A10.61,10.61,0,0,1,234.79,205Z"/><path class="cls-2" d="M181.4,194.42a10.62,10.62,0,1,1-10.62-10.63A10.61,10.61,0,0,1,181.4,194.42Z"/><path class="cls-2" d="M245.41,194.42a10.62,10.62,0,1,1-10.62-10.63A10.61,10.61,0,0,1,245.41,194.42Z"/><path class="cls-2" d="M217.88,234H187.69a2.59,2.59,0,0,1-2.53-3.22c1.77-6.75,9-11.79,17.63-11.79s15.85,5,17.62,11.79A2.59,2.59,0,0,1,217.88,234Z"/><path d="M110.61,342.67v44.2c0,.41,0,.81,0,1.21v-46.5C110.62,341.94,110.61,342.31,110.61,342.67Z"/><path class="cls-1" d="M472.4,152.21v3.72a26.58,26.58,0,0,1-26.55,26.55H389.06a23.38,23.38,0,0,1-4.05-.35,5,5,0,0,0-3.36.57l-16.15,9.1a.2.2,0,0,1-.3,0c-.13-.14-.09-.23-.05-.3l6.55-11.31a5,5,0,0,0-.59-5.81,23.89,23.89,0,0,1-6-15.77v-6.36a26.6,26.6,0,0,1,26.56-26.56h54.14A26.59,26.59,0,0,1,472.4,152.21Z"/><path class="cls-2" d="M445.84,120.88H391.7a31.36,31.36,0,0,0-31.33,31.33v6.36a28.64,28.64,0,0,0,7.15,18.92.23.23,0,0,1,0,.28L361,189.07a5.06,5.06,0,0,0,4.35,7.56,5.16,5.16,0,0,0,2.49-.66L384,186.86a.31.31,0,0,1,.2,0,27.75,27.75,0,0,0,4.87.42h56.79a31.36,31.36,0,0,0,31.33-31.32v-3.72A31.36,31.36,0,0,0,445.84,120.88Zm26.56,35.05a26.58,26.58,0,0,1-26.55,26.55H389.06a23.38,23.38,0,0,1-4.05-.35,5,5,0,0,0-3.36.57l-16.15,9.1a.2.2,0,0,1-.3,0c-.13-.14-.09-.23-.05-.3l6.55-11.31a5,5,0,0,0-.59-5.81,23.89,23.89,0,0,1-6-15.77v-6.36a26.6,26.6,0,0,1,26.56-26.56h54.14a26.59,26.59,0,0,1,26.56,26.56Z"/><path class="cls-2" d="M421.56,166.38a4.32,4.32,0,0,0-6.06,0,4,4,0,0,0-1.26,3,4.13,4.13,0,0,0,1.26,3,4.08,4.08,0,0,0,3,1.27,4.27,4.27,0,0,0,4.28-4.27A4,4,0,0,0,421.56,166.38ZM427,138.3a10.92,10.92,0,0,0-8-2.85,12.09,12.09,0,0,0-8.32,2.78,9.44,9.44,0,0,0-3.14,7.41v.79h7a3,3,0,0,0,0-.37,3.15,3.15,0,0,1,0-.37,5.25,5.25,0,0,1,1.05-3.51,3.82,3.82,0,0,1,3-1.19,3.63,3.63,0,0,1,3,1.27,5.61,5.61,0,0,1,1,3.63,5.54,5.54,0,0,1-1.41,4,5.15,5.15,0,0,1-3.93,1.45h-2.19V162H422v-6.42a10.3,10.3,0,0,0,5.95-3.23,9.38,9.38,0,0,0,2-6.25A10.47,10.47,0,0,0,427,138.3Z"/></g></g></svg>