<svg xmlns="http://www.w3.org/2000/svg" viewBox="0 0 28.3 20.63"><defs><style>.cls-1{fill:#3c3c3c;}</style></defs><title>Recurso 4</title><g id="Capa_2" data-name="Capa 2"><g id="Capa_1-2" data-name="Capa 1"><path class="cls-1" d="M22.24,4.25H.91A.91.91,0,0,0,0,5.16V19.72a.91.91,0,0,0,.91.91H22.24a.9.9,0,0,0,.9-.91V5.16A.9.9,0,0,0,22.24,4.25Zm-.91,14.56H1.81V6.06H21.33Z"/><path class="cls-1" d="M27.39,0H6.06a.91.91,0,0,0-.91.91V3.13H7V1.81H26.48V14.56H24.39v1.82h3a.91.91,0,0,0,.91-.91V.91A.91.91,0,0,0,27.39,0Z"/></g></g></svg>