<svg xmlns="http://www.w3.org/2000/svg" viewBox="0 0 21.71 30.53"><defs><style>.cls-1{fill:#fff;}</style></defs><title>Recurso 4</title><g id="Capa_2" data-name="Capa 2"><g id="Capa_1-2" data-name="Capa 1"><path class="cls-1" d="M10.85,14.39a7.2,7.2,0,1,1,7.2-7.19A7.21,7.21,0,0,1,10.85,14.39Zm0-12a4.81,4.81,0,1,0,4.8,4.81A4.81,4.81,0,0,0,10.85,2.39Z"/><path class="cls-1" d="M20.51,30.53H1.2A1.19,1.19,0,0,1,0,29.34V21.28a5.81,5.81,0,0,1,.07-.9c.45-2.85,3-5.27,6.7-6.33a1.2,1.2,0,0,1,1.08.22,4.76,4.76,0,0,0,3,1.06,4.67,4.67,0,0,0,3-1.08A1.21,1.21,0,0,1,15,14c3.7,1.07,6.28,3.5,6.73,6.34a1.28,1.28,0,0,1,0,.19v8.78A1.19,1.19,0,0,1,20.51,30.53ZM2.39,28.14H19.32V20.66c-.32-1.72-2-3.31-4.47-4.15a7.08,7.08,0,0,1-4,1.21,7.15,7.15,0,0,1-4-1.19c-2.44.84-4.16,2.46-4.44,4.22a3.49,3.49,0,0,0,0,.53Z"/></g></g></svg>