<svg xmlns="http://www.w3.org/2000/svg" viewBox="0 0 15.28 21.49"><defs><style>.cls-1{fill:#3c3c3c;}</style></defs><title>Recurso 1</title><g id="Capa_2" data-name="Capa 2"><g id="Capa_1-2" data-name="Capa 1"><path class="cls-1" d="M7.64,10.13A5.07,5.07,0,1,1,12.7,5.06,5.07,5.07,0,0,1,7.64,10.13Zm0-8.45A3.38,3.38,0,1,0,11,5.06,3.38,3.38,0,0,0,7.64,1.68Z"/><path class="cls-1" d="M14.44,21.49H.84A.85.85,0,0,1,0,20.64V15a4.85,4.85,0,0,1,.05-.64c.32-2,2.12-3.71,4.71-4.45a.85.85,0,0,1,.77.15,3.34,3.34,0,0,0,4.23,0,.86.86,0,0,1,.77-.16c2.61.76,4.42,2.47,4.74,4.47,0,0,0,.08,0,.13v6.17A.85.85,0,0,1,14.44,21.49ZM1.68,19.8H13.59V14.54a4.4,4.4,0,0,0-3.14-2.92,5,5,0,0,1-2.81.85,5,5,0,0,1-2.8-.84c-1.72.6-2.93,1.73-3.13,3,0,.13,0,.26,0,.38Z"/></g></g></svg>