<svg xmlns="http://www.w3.org/2000/svg" viewBox="0 0 23.23 30.02"><defs><style>.cls-1{fill:#fff;}</style></defs><title>Recurso 5</title><g id="Capa_2" data-name="Capa 2"><g id="Capa_1-2" data-name="Capa 1"><path class="cls-1" d="M22,10.42h-.25a1.93,1.93,0,0,0,0-.24,10.19,10.19,0,0,0-20.38,0,1.93,1.93,0,0,0,0,.24H1.2A1.2,1.2,0,0,0,0,11.62v17.2A1.2,1.2,0,0,0,1.2,30H22a1.2,1.2,0,0,0,1.19-1.2V11.62A1.19,1.19,0,0,0,22,10.42ZM3.81,10.18a7.8,7.8,0,0,1,15.59,0v.24H3.81Zm17,17.44H2.39V12.81H20.84Z"/><line class="cls-1" x1="10.05" y1="20.93" x2="10.05" y2="16.62"/><path class="cls-1" d="M13.3,18.15a1.72,1.72,0,0,1-.55,1.27V22a1.2,1.2,0,0,1-2.39,0V19.42a1.69,1.69,0,0,1-.56-1.27,1.75,1.75,0,0,1,3.5,0Z"/></g></g></svg>