<?xml version="1.0" encoding="UTF-8"?>
<svg id="Capa_2" data-name="Capa 2" xmlns="http://www.w3.org/2000/svg" viewBox="0 0 21.59 21.87">
  <defs>
    <style>
      .cls-1 {
        fill: #3c3c3c;
      }
    </style>
  </defs>
  <g id="Capa_1-2" data-name="Capa 1">
    <path class="cls-1" d="m21.58,14.6c-.32-2.03-2.17-3.78-4.82-4.54-.27-.08-.56-.02-.78.16-.62.5-1.37.77-2.17.77s-1.53-.26-2.15-.76c-.22-.18-.51-.23-.78-.15-.02,0-.04.01-.06.01-.03,0-.07-.02-.11-.03-.27-.08-.57-.02-.78.16-.62.5-1.36.77-2.16.77s-1.54-.26-2.15-.76c-.22-.18-.5-.23-.77-.15C2.22,10.82.38,12.56.05,14.6c-.03.22-.05.44-.05.65v5.77c0,.47.38.86.86.86h19.88c.47,0,.86-.38.86-.86v-6.29s0-.09-.01-.13Zm-7.74,5.56H1.71v-4.91c0-.12.01-.25.03-.38.2-1.26,1.43-2.42,3.18-3.02.62.41,1.3.67,2.03.79.27.04.54.07.82.07,1.04,0,2.02-.3,2.86-.87.07.02.13.05.19.08,1.63.62,2.78,1.71,3,2.9v5.35Z"/>
    <path class="cls-1" d="m13.81,0c-1.13,0-2.17.37-3.02.99-.85-.62-1.89-.99-3.02-.99C4.93,0,2.62,2.31,2.62,5.15s2.31,5.15,5.15,5.15c1.13,0,2.17-.37,3.02-.99.86.62,1.89.99,3.02.99,2.84,0,5.15-2.31,5.15-5.15S16.65,0,13.81,0Zm-4.22,8.07c-.53.33-1.15.52-1.82.52-1.9,0-3.44-1.54-3.44-3.44s1.54-3.44,3.44-3.44c.67,0,1.29.19,1.82.53.51.31.93.76,1.21,1.29.26.49.41,1.03.41,1.62s-.15,1.14-.41,1.63c-.28.53-.7.97-1.21,1.29Z"/>
  </g>
</svg>