<?xml version="1.0" encoding="UTF-8"?>
<svg id="Capa_2" data-name="Capa 2" xmlns="http://www.w3.org/2000/svg" viewBox="0 0 19.31 19.76">
  <defs>
    <style>
      .cls-1 {
        fill: #3c3c3c;
      }
    </style>
  </defs>
  <g id="Capa_1-2" data-name="Capa 1">
    <path class="cls-1" d="m18.54,19.76H.77c-.43,0-.77-.35-.77-.77V.77c0-.43.35-.77.77-.77h17.77c.43,0,.77.35.77.77v18.22c0,.43-.35.77-.77.77Zm-16.99-1.54h16.22V1.54H1.54v16.68Z"/>
    <g>
      <path class="cls-1" d="m10.67,5.78h-6.01c-.43,0-.77-.35-.77-.77s.35-.77.77-.77h6.01c.43,0,.77.35.77.77s-.35.77-.77.77Z"/>
      <path class="cls-1" d="m14.66,5.78h-1.2c-.43,0-.77-.35-.77-.77s.35-.77.77-.77h1.2c.43,0,.77.35.77.77s-.35.77-.77.77Z"/>
      <path class="cls-1" d="m14.93,8.88h-4.88c-.43,0-.77-.35-.77-.77s.35-.77.77-.77h4.88c.43,0,.77.35.77.77s-.35.77-.77.77Z"/>
      <path class="cls-1" d="m6.9,8.88h-2.24c-.43,0-.77-.35-.77-.77s.35-.77.77-.77h2.24c.43,0,.77.35.77.77s-.35.77-.77.77Z"/>
      <path class="cls-1" d="m10.35,11.95h-5.69c-.43,0-.77-.35-.77-.77s.35-.77.77-.77h5.69c.43,0,.77.35.77.77s-.35.77-.77.77Z"/>
      <path class="cls-1" d="m14.66,11.95h-1.86c-.43,0-.77-.35-.77-.77s.35-.77.77-.77h1.86c.43,0,.77.35.77.77s-.35.77-.77.77Z"/>
      <path class="cls-1" d="m14.93,15.05h-5.34c-.43,0-.77-.35-.77-.77s.35-.77.77-.77h5.34c.43,0,.77.35.77.77s-.35.77-.77.77Z"/>
      <path class="cls-1" d="m7.17,15.05h-2.79c-.43,0-.77-.35-.77-.77s.35-.77.77-.77h2.79c.43,0,.77.35.77.77s-.35.77-.77.77Z"/>
    </g>
  </g>
</svg>